<svg viewBox="0 0 1200 800" xmlns="http://www.w3.org/2000/svg">
  <rect width="1200" height="800" fill="white"/>
  <text x="600" y="40" font-size="32" font-weight="bold" text-anchor="middle" fill="#667eea">Lingo Architecture</text>
  
  <rect x="500" y="120" width="200" height="80" fill="#667eea" fill-opacity="0.2" stroke="#667eea" stroke-width="2" rx="10"/>
  <text x="600" y="165" font-size="18" font-weight="bold" text-anchor="middle" fill="#667eea">index.html</text>
  
  <rect x="300" y="250" width="180" height="80" fill="#667eea" fill-opacity="0.2" stroke="#667eea" stroke-width="2" rx="10"/>
  <text x="390" y="295" font-size="18" font-weight="bold" text-anchor="middle" fill="#667eea">lingo-data.js</text>
  
  <rect x="720" y="250" width="180" height="80" fill="#667eea" fill-opacity="0.2" stroke="#667eea" stroke-width="2" rx="10"/>
  <text x="810" y="295" font-size="18" font-weight="bold" text-anchor="middle" fill="#667eea">lingo-app.js</text>
  
  <rect x="100" y="400" width="150" height="60" fill="#764ba2" fill-opacity="0.2" stroke="#764ba2" stroke-width="2" rx="8"/>
  <text x="175" y="435" font-size="16" font-weight="bold" text-anchor="middle" fill="#764ba2">Languages</text>
  
  <rect x="280" y="400" width="150" height="60" fill="#764ba2" fill-opacity="0.2" stroke="#764ba2" stroke-width="2" rx="8"/>
  <text x="355" y="435" font-size="16" font-weight="bold" text-anchor="middle" fill="#764ba2">Programming</text>
  
  <rect x="460" y="400" width="150" height="60" fill="#764ba2" fill-opacity="0.2" stroke="#764ba2" stroke-width="2" rx="8"/>
  <text x="535" y="435" font-size="16" font-weight="bold" text-anchor="middle" fill="#764ba2">Math</text>
  
  <rect x="640" y="400" width="150" height="60" fill="#764ba2" fill-opacity="0.2" stroke="#764ba2" stroke-width="2" rx="8"/>
  <text x="715" y="435" font-size="16" font-weight="bold" text-anchor="middle" fill="#764ba2">Science</text>
  
  <rect x="820" y="400" width="150" height="60" fill="#764ba2" fill-opacity="0.2" stroke="#764ba2" stroke-width="2" rx="8"/>
  <text x="895" y="435" font-size="16" font-weight="bold" text-anchor="middle" fill="#764ba2">Skills</text>
  
  <text x="600" y="550" font-size="24" font-weight="bold" text-anchor="middle" fill="#667eea">40+ Topics</text>
  <text x="600" y="580" font-size="24" font-weight="bold" text-anchor="middle" fill="#667eea">330+ Questions</text>
</svg>
